G04 (created by PCBNEW (2013-09-28 BZR 4356)-product) date 25/03/2014 00:12:11*
%MOIN*%
G04 Gerber Fmt 3.4, Leading zero omitted, Abs format*
%FSLAX34Y34*%
G01*
G70*
G90*
G04 APERTURE LIST*
%ADD10C,0.005906*%
%ADD11C,0.005900*%
%ADD12C,0.012000*%
%ADD13C,0.074800*%
%ADD14R,0.031400X0.031400*%
%ADD15R,0.055000X0.055000*%
%ADD16C,0.055000*%
%ADD17R,0.055000X0.035000*%
%ADD18R,0.045000X0.025000*%
%ADD19R,0.020000X0.050000*%
%ADD20C,0.160000*%
%ADD21C,0.035000*%
%ADD22C,0.010000*%
G04 APERTURE END LIST*
G54D10*
G54D11*
X75604Y-45060D02*
X75379Y-45060D01*
X75492Y-45060D02*
X75492Y-44666D01*
X75454Y-44722D01*
X75417Y-44759D01*
X75379Y-44778D01*
X73800Y-44769D02*
X73800Y-44994D01*
X73800Y-44881D02*
X73406Y-44881D01*
X73462Y-44919D01*
X73500Y-44956D01*
X73518Y-44994D01*
G54D12*
X72073Y-37141D02*
X72359Y-37141D01*
X72016Y-37369D02*
X72216Y-36569D01*
X72416Y-37369D01*
X72530Y-36569D02*
X72873Y-36569D01*
X72702Y-37369D02*
X72702Y-36569D01*
X72987Y-36836D02*
X73216Y-36836D01*
X73073Y-36569D02*
X73073Y-37255D01*
X73102Y-37331D01*
X73159Y-37369D01*
X73216Y-37369D01*
X73416Y-37369D02*
X73416Y-36836D01*
X73416Y-36569D02*
X73387Y-36607D01*
X73416Y-36645D01*
X73445Y-36607D01*
X73416Y-36569D01*
X73416Y-36645D01*
X73702Y-36836D02*
X73702Y-37369D01*
X73702Y-36912D02*
X73730Y-36874D01*
X73787Y-36836D01*
X73873Y-36836D01*
X73930Y-36874D01*
X73959Y-36950D01*
X73959Y-37369D01*
X74187Y-36836D02*
X74330Y-37369D01*
X74473Y-36836D02*
X74330Y-37369D01*
X74273Y-37560D01*
X74245Y-37598D01*
X74187Y-37636D01*
X75016Y-37369D02*
X74673Y-37369D01*
X74845Y-37369D02*
X74845Y-36569D01*
X74787Y-36684D01*
X74730Y-36760D01*
X74673Y-36798D01*
X75530Y-36569D02*
X75416Y-36569D01*
X75359Y-36607D01*
X75330Y-36645D01*
X75273Y-36760D01*
X75245Y-36912D01*
X75245Y-37217D01*
X75273Y-37293D01*
X75302Y-37331D01*
X75359Y-37369D01*
X75473Y-37369D01*
X75530Y-37331D01*
X75559Y-37293D01*
X75587Y-37217D01*
X75587Y-37026D01*
X75559Y-36950D01*
X75530Y-36912D01*
X75473Y-36874D01*
X75359Y-36874D01*
X75302Y-36912D01*
X75273Y-36950D01*
X75245Y-37026D01*
X75787Y-36569D02*
X76159Y-36569D01*
X75959Y-36874D01*
X76045Y-36874D01*
X76102Y-36912D01*
X76130Y-36950D01*
X76159Y-37026D01*
X76159Y-37217D01*
X76130Y-37293D01*
X76102Y-37331D01*
X76045Y-37369D01*
X75873Y-37369D01*
X75816Y-37331D01*
X75787Y-37293D01*
X76673Y-36836D02*
X76673Y-37369D01*
X76530Y-36531D02*
X76387Y-37103D01*
X76759Y-37103D01*
X77416Y-37331D02*
X77502Y-37369D01*
X77645Y-37369D01*
X77702Y-37331D01*
X77730Y-37293D01*
X77759Y-37217D01*
X77759Y-37141D01*
X77730Y-37065D01*
X77702Y-37026D01*
X77645Y-36988D01*
X77530Y-36950D01*
X77473Y-36912D01*
X77445Y-36874D01*
X77416Y-36798D01*
X77416Y-36722D01*
X77445Y-36645D01*
X77473Y-36607D01*
X77530Y-36569D01*
X77673Y-36569D01*
X77759Y-36607D01*
X78130Y-36569D02*
X78245Y-36569D01*
X78302Y-36607D01*
X78359Y-36684D01*
X78387Y-36836D01*
X78387Y-37103D01*
X78359Y-37255D01*
X78302Y-37331D01*
X78245Y-37369D01*
X78130Y-37369D01*
X78073Y-37331D01*
X78016Y-37255D01*
X77987Y-37103D01*
X77987Y-36836D01*
X78016Y-36684D01*
X78073Y-36607D01*
X78130Y-36569D01*
X78616Y-36645D02*
X78645Y-36607D01*
X78702Y-36569D01*
X78845Y-36569D01*
X78902Y-36607D01*
X78930Y-36645D01*
X78959Y-36722D01*
X78959Y-36798D01*
X78930Y-36912D01*
X78587Y-37369D01*
X78959Y-37369D01*
X79330Y-36569D02*
X79387Y-36569D01*
X79445Y-36607D01*
X79473Y-36645D01*
X79502Y-36722D01*
X79530Y-36874D01*
X79530Y-37065D01*
X79502Y-37217D01*
X79473Y-37293D01*
X79445Y-37331D01*
X79387Y-37369D01*
X79330Y-37369D01*
X79273Y-37331D01*
X79245Y-37293D01*
X79216Y-37217D01*
X79187Y-37065D01*
X79187Y-36874D01*
X79216Y-36722D01*
X79245Y-36645D01*
X79273Y-36607D01*
X79330Y-36569D01*
X80216Y-37141D02*
X80502Y-37141D01*
X80159Y-37369D02*
X80359Y-36569D01*
X80559Y-37369D01*
X81016Y-37369D02*
X81016Y-36569D01*
X81016Y-37331D02*
X80959Y-37369D01*
X80845Y-37369D01*
X80787Y-37331D01*
X80759Y-37293D01*
X80730Y-37217D01*
X80730Y-36988D01*
X80759Y-36912D01*
X80787Y-36874D01*
X80845Y-36836D01*
X80959Y-36836D01*
X81016Y-36874D01*
X81559Y-37369D02*
X81559Y-36950D01*
X81530Y-36874D01*
X81473Y-36836D01*
X81359Y-36836D01*
X81302Y-36874D01*
X81559Y-37331D02*
X81502Y-37369D01*
X81359Y-37369D01*
X81302Y-37331D01*
X81273Y-37255D01*
X81273Y-37179D01*
X81302Y-37103D01*
X81359Y-37065D01*
X81502Y-37065D01*
X81559Y-37026D01*
X81845Y-36836D02*
X81845Y-37636D01*
X81845Y-36874D02*
X81902Y-36836D01*
X82016Y-36836D01*
X82073Y-36874D01*
X82102Y-36912D01*
X82130Y-36988D01*
X82130Y-37217D01*
X82102Y-37293D01*
X82073Y-37331D01*
X82016Y-37369D01*
X81902Y-37369D01*
X81845Y-37331D01*
X82302Y-36836D02*
X82530Y-36836D01*
X82387Y-36569D02*
X82387Y-37255D01*
X82416Y-37331D01*
X82473Y-37369D01*
X82530Y-37369D01*
X82959Y-37331D02*
X82902Y-37369D01*
X82787Y-37369D01*
X82730Y-37331D01*
X82702Y-37255D01*
X82702Y-36950D01*
X82730Y-36874D01*
X82787Y-36836D01*
X82902Y-36836D01*
X82959Y-36874D01*
X82987Y-36950D01*
X82987Y-37026D01*
X82702Y-37103D01*
X83245Y-37369D02*
X83245Y-36836D01*
X83245Y-36988D02*
X83273Y-36912D01*
X83302Y-36874D01*
X83359Y-36836D01*
X83416Y-36836D01*
G54D13*
X88816Y-36841D03*
X90784Y-36841D03*
X88816Y-41959D03*
X90784Y-41959D03*
G54D14*
X90354Y-44094D03*
X90944Y-44094D03*
G54D15*
X75500Y-46000D03*
G54D16*
X76500Y-46000D03*
X77500Y-46000D03*
X78500Y-46000D03*
X79500Y-46000D03*
X80500Y-46000D03*
X81500Y-46000D03*
X82500Y-46000D03*
X83500Y-46000D03*
X84500Y-46000D03*
G54D15*
X84500Y-40000D03*
G54D16*
X83500Y-40000D03*
X82500Y-40000D03*
X81500Y-40000D03*
X80500Y-40000D03*
X79500Y-40000D03*
X78500Y-40000D03*
X77500Y-40000D03*
X76500Y-40000D03*
X75500Y-40000D03*
G54D17*
X83464Y-42144D03*
X83464Y-42894D03*
G54D18*
X88385Y-44385D03*
X88385Y-44985D03*
G54D19*
X82250Y-41100D03*
X81750Y-41100D03*
X81250Y-41100D03*
X80750Y-41100D03*
X80250Y-41100D03*
X79750Y-41100D03*
X79250Y-41100D03*
X78750Y-41100D03*
X78250Y-41100D03*
X77750Y-41100D03*
X77750Y-44900D03*
X78250Y-44900D03*
X78750Y-44900D03*
X79250Y-44900D03*
X79750Y-44900D03*
X80250Y-44900D03*
X80750Y-44900D03*
X81250Y-44900D03*
X81750Y-44900D03*
X82250Y-44900D03*
G54D20*
X70472Y-35039D03*
X93307Y-35039D03*
X70472Y-48031D03*
X93307Y-48031D03*
G54D21*
X85768Y-45285D03*
X76880Y-41482D03*
X74433Y-42262D03*
X75870Y-40900D03*
X86599Y-38250D03*
X74632Y-43240D03*
G54D22*
X83818Y-45318D02*
X82250Y-45318D01*
X84500Y-46000D02*
X83818Y-45318D01*
X82250Y-44900D02*
X82250Y-45318D01*
X89753Y-45285D02*
X85768Y-45285D01*
X90944Y-44094D02*
X89753Y-45285D01*
X85214Y-45285D02*
X84500Y-46000D01*
X85768Y-45285D02*
X85214Y-45285D01*
X78250Y-41309D02*
X78250Y-41518D01*
X78250Y-41309D02*
X78250Y-41100D01*
X76963Y-40463D02*
X76500Y-40000D01*
X78031Y-40463D02*
X76963Y-40463D01*
X78250Y-40681D02*
X78031Y-40463D01*
X78250Y-41100D02*
X78250Y-40681D01*
X76915Y-41518D02*
X76880Y-41482D01*
X78250Y-41518D02*
X76915Y-41518D01*
X79750Y-40250D02*
X79750Y-41100D01*
X79500Y-40000D02*
X79750Y-40250D01*
X79750Y-41100D02*
X79750Y-41518D01*
X79005Y-42262D02*
X74433Y-42262D01*
X79750Y-41518D02*
X79005Y-42262D01*
X77750Y-41100D02*
X77750Y-40681D01*
X76135Y-40635D02*
X75870Y-40900D01*
X76181Y-40681D02*
X76135Y-40635D01*
X77750Y-40681D02*
X76181Y-40681D01*
X76135Y-40635D02*
X75500Y-40000D01*
X80750Y-41100D02*
X80750Y-40681D01*
X82126Y-42894D02*
X80750Y-41518D01*
X83464Y-42894D02*
X82126Y-42894D01*
X80750Y-41100D02*
X80750Y-41518D01*
X80818Y-40681D02*
X81500Y-40000D01*
X80750Y-40681D02*
X80818Y-40681D01*
X83249Y-38250D02*
X86599Y-38250D01*
X81500Y-40000D02*
X83249Y-38250D01*
X89138Y-44985D02*
X90029Y-44094D01*
X88385Y-44985D02*
X89138Y-44985D01*
X90354Y-44094D02*
X90029Y-44094D01*
X75943Y-45889D02*
X75943Y-46000D01*
X76932Y-44900D02*
X75943Y-45889D01*
X77750Y-44900D02*
X76932Y-44900D01*
X75500Y-46000D02*
X75943Y-46000D01*
X77181Y-45318D02*
X76500Y-46000D01*
X77919Y-45318D02*
X77181Y-45318D01*
X78250Y-44987D02*
X77919Y-45318D01*
X78250Y-44900D02*
X78250Y-44987D01*
X78750Y-44900D02*
X78750Y-45318D01*
X78227Y-45318D02*
X78750Y-45318D01*
X77546Y-46000D02*
X78227Y-45318D01*
X77500Y-46000D02*
X77546Y-46000D01*
X79181Y-45318D02*
X78500Y-46000D01*
X79250Y-45318D02*
X79181Y-45318D01*
X79250Y-44900D02*
X79250Y-45318D01*
X79750Y-45750D02*
X79500Y-46000D01*
X79750Y-44900D02*
X79750Y-45750D01*
X80250Y-45750D02*
X80500Y-46000D01*
X80250Y-44900D02*
X80250Y-45750D01*
X80818Y-45318D02*
X81500Y-46000D01*
X80750Y-45318D02*
X80818Y-45318D01*
X80750Y-44900D02*
X80750Y-45318D01*
X82052Y-46447D02*
X82500Y-46000D01*
X75112Y-46447D02*
X82052Y-46447D01*
X75056Y-46391D02*
X75112Y-46447D01*
X75056Y-45619D02*
X75056Y-46391D01*
X76194Y-44481D02*
X75056Y-45619D01*
X81250Y-44481D02*
X76194Y-44481D01*
X81250Y-44900D02*
X81250Y-44481D01*
X83036Y-45536D02*
X83500Y-46000D01*
X81968Y-45536D02*
X83036Y-45536D01*
X81750Y-45318D02*
X81968Y-45536D01*
X81750Y-44900D02*
X81750Y-45318D01*
X82818Y-40681D02*
X83500Y-40000D01*
X82080Y-40681D02*
X82818Y-40681D01*
X81750Y-41012D02*
X82080Y-40681D01*
X81750Y-41100D02*
X81750Y-41012D01*
X82249Y-40000D02*
X82500Y-40000D01*
X81567Y-40681D02*
X82249Y-40000D01*
X81250Y-40681D02*
X81567Y-40681D01*
X81250Y-41100D02*
X81250Y-40681D01*
X80250Y-40250D02*
X80500Y-40000D01*
X80250Y-41100D02*
X80250Y-40250D01*
X79181Y-40681D02*
X78500Y-40000D01*
X79250Y-40681D02*
X79181Y-40681D01*
X79250Y-41100D02*
X79250Y-40681D01*
X78750Y-41100D02*
X78750Y-41518D01*
X77035Y-39535D02*
X77500Y-40000D01*
X75327Y-39535D02*
X77035Y-39535D01*
X75053Y-39810D02*
X75327Y-39535D01*
X75053Y-40571D02*
X75053Y-39810D01*
X76307Y-41826D02*
X75053Y-40571D01*
X78442Y-41826D02*
X76307Y-41826D01*
X78750Y-41518D02*
X78442Y-41826D01*
X83464Y-42144D02*
X83464Y-42487D01*
X88385Y-44385D02*
X88385Y-44091D01*
X82250Y-41100D02*
X82250Y-41518D01*
X83464Y-42144D02*
X83464Y-41801D01*
X84500Y-40000D02*
X84500Y-40443D01*
X83303Y-41640D02*
X84500Y-40443D01*
X83181Y-41518D02*
X83303Y-41640D01*
X82250Y-41518D02*
X83181Y-41518D01*
X83303Y-41640D02*
X83464Y-41801D01*
X83917Y-43240D02*
X74632Y-43240D01*
X87534Y-43240D02*
X83917Y-43240D01*
X88385Y-44091D02*
X87534Y-43240D01*
X83747Y-42487D02*
X83464Y-42487D01*
X83917Y-42657D02*
X83747Y-42487D01*
X83917Y-43240D02*
X83917Y-42657D01*
G54D10*
G36*
X92079Y-46804D02*
X91545Y-46804D01*
X91545Y-44339D01*
X91545Y-44283D01*
X91545Y-43905D01*
X91545Y-43849D01*
X91523Y-43795D01*
X91523Y-41812D01*
X91410Y-41540D01*
X91203Y-41332D01*
X90931Y-41220D01*
X90637Y-41219D01*
X90365Y-41332D01*
X90157Y-41539D01*
X90045Y-41811D01*
X90044Y-42105D01*
X90157Y-42377D01*
X90364Y-42585D01*
X90636Y-42697D01*
X90930Y-42698D01*
X91202Y-42585D01*
X91410Y-42378D01*
X91522Y-42106D01*
X91523Y-41812D01*
X91523Y-43795D01*
X91477Y-43686D01*
X91352Y-43561D01*
X91189Y-43493D01*
X91134Y-43493D01*
X91023Y-43604D01*
X91023Y-44015D01*
X91434Y-44015D01*
X91545Y-43905D01*
X91545Y-44283D01*
X91434Y-44172D01*
X91023Y-44172D01*
X91023Y-44584D01*
X91134Y-44695D01*
X91189Y-44695D01*
X91352Y-44627D01*
X91477Y-44502D01*
X91545Y-44339D01*
X91545Y-46804D01*
X85231Y-46804D01*
X85231Y-46034D01*
X85189Y-45751D01*
X85163Y-45688D01*
X85026Y-45668D01*
X84831Y-45862D01*
X84831Y-45473D01*
X84811Y-45336D01*
X84534Y-45268D01*
X84251Y-45310D01*
X84188Y-45336D01*
X84168Y-45473D01*
X84500Y-45805D01*
X84831Y-45473D01*
X84831Y-45862D01*
X84694Y-46000D01*
X85026Y-46331D01*
X85163Y-46311D01*
X85231Y-46034D01*
X85231Y-46804D01*
X84831Y-46804D01*
X84831Y-46526D01*
X84500Y-46194D01*
X84168Y-46526D01*
X84188Y-46663D01*
X84465Y-46731D01*
X84748Y-46689D01*
X84811Y-46663D01*
X84831Y-46526D01*
X84831Y-46804D01*
X82251Y-46804D01*
X82346Y-46740D01*
X82446Y-46639D01*
X82626Y-46640D01*
X82862Y-46542D01*
X83000Y-46405D01*
X83137Y-46542D01*
X83372Y-46639D01*
X83626Y-46640D01*
X83862Y-46542D01*
X84042Y-46362D01*
X84112Y-46192D01*
X84305Y-46000D01*
X84112Y-45807D01*
X84042Y-45637D01*
X83862Y-45457D01*
X83627Y-45360D01*
X83446Y-45359D01*
X83329Y-45242D01*
X83194Y-45152D01*
X83036Y-45121D01*
X83036Y-45121D01*
X82793Y-45121D01*
X82793Y-44664D01*
X82793Y-44561D01*
X82726Y-44398D01*
X82601Y-44273D01*
X82438Y-44206D01*
X82410Y-44206D01*
X82300Y-44317D01*
X82300Y-44775D01*
X82682Y-44775D01*
X82793Y-44664D01*
X82793Y-45121D01*
X82778Y-45121D01*
X82682Y-45025D01*
X82300Y-45025D01*
X82300Y-45054D01*
X82214Y-45054D01*
X82214Y-44577D01*
X82200Y-44541D01*
X82200Y-44317D01*
X82089Y-44206D01*
X82061Y-44206D01*
X81898Y-44273D01*
X81887Y-44285D01*
X81777Y-44285D01*
X81607Y-44285D01*
X81543Y-44188D01*
X81408Y-44098D01*
X81250Y-44066D01*
X76194Y-44066D01*
X76035Y-44098D01*
X75981Y-44134D01*
X75954Y-44152D01*
X74910Y-44152D01*
X74910Y-45179D01*
X74763Y-45325D01*
X74673Y-45460D01*
X74641Y-45619D01*
X74641Y-45619D01*
X74641Y-46391D01*
X74641Y-46391D01*
X74673Y-46550D01*
X74763Y-46685D01*
X74818Y-46740D01*
X74818Y-46740D01*
X74818Y-46740D01*
X74914Y-46804D01*
X71699Y-46804D01*
X71699Y-37992D01*
X82920Y-37992D01*
X81553Y-39360D01*
X81373Y-39359D01*
X81137Y-39457D01*
X80999Y-39594D01*
X80862Y-39457D01*
X80627Y-39360D01*
X80373Y-39359D01*
X80137Y-39457D01*
X79999Y-39594D01*
X79862Y-39457D01*
X79627Y-39360D01*
X79373Y-39359D01*
X79137Y-39457D01*
X78999Y-39594D01*
X78862Y-39457D01*
X78627Y-39360D01*
X78373Y-39359D01*
X78137Y-39457D01*
X77999Y-39594D01*
X77862Y-39457D01*
X77627Y-39360D01*
X77446Y-39359D01*
X77329Y-39242D01*
X77194Y-39152D01*
X77035Y-39120D01*
X77035Y-39120D01*
X75327Y-39120D01*
X75327Y-39120D01*
X75169Y-39152D01*
X75034Y-39242D01*
X74759Y-39516D01*
X74669Y-39651D01*
X74638Y-39810D01*
X74638Y-39810D01*
X74638Y-40571D01*
X74638Y-40571D01*
X74669Y-40730D01*
X74759Y-40865D01*
X75742Y-41847D01*
X74781Y-41847D01*
X74739Y-41804D01*
X74540Y-41722D01*
X74326Y-41722D01*
X74127Y-41804D01*
X74096Y-41835D01*
X74096Y-41801D01*
X74010Y-41593D01*
X73851Y-41434D01*
X73644Y-41348D01*
X73419Y-41348D01*
X73211Y-41434D01*
X73052Y-41592D01*
X73031Y-41644D01*
X73010Y-41593D01*
X72851Y-41434D01*
X72644Y-41348D01*
X72419Y-41348D01*
X72211Y-41434D01*
X72052Y-41592D01*
X71966Y-41800D01*
X71966Y-42025D01*
X72052Y-42232D01*
X72211Y-42392D01*
X72262Y-42413D01*
X72211Y-42434D01*
X72052Y-42592D01*
X71966Y-42800D01*
X71966Y-43025D01*
X72052Y-43232D01*
X72211Y-43392D01*
X72262Y-43413D01*
X72211Y-43434D01*
X72052Y-43592D01*
X71966Y-43800D01*
X71966Y-44025D01*
X72052Y-44232D01*
X72211Y-44392D01*
X72418Y-44478D01*
X72643Y-44478D01*
X72851Y-44392D01*
X72892Y-44351D01*
X72892Y-45463D01*
X74292Y-45463D01*
X74292Y-44299D01*
X73944Y-44299D01*
X74010Y-44233D01*
X74096Y-44026D01*
X74096Y-43801D01*
X74010Y-43593D01*
X73851Y-43434D01*
X73800Y-43413D01*
X73851Y-43392D01*
X74010Y-43233D01*
X74096Y-43026D01*
X74096Y-42801D01*
X74017Y-42610D01*
X74126Y-42719D01*
X74312Y-42796D01*
X74175Y-42933D01*
X74092Y-43132D01*
X74092Y-43347D01*
X74174Y-43545D01*
X74326Y-43697D01*
X74524Y-43780D01*
X74739Y-43780D01*
X74938Y-43698D01*
X74981Y-43655D01*
X83917Y-43655D01*
X87362Y-43655D01*
X87824Y-44117D01*
X87795Y-44187D01*
X87795Y-44332D01*
X87795Y-44582D01*
X87838Y-44685D01*
X87795Y-44787D01*
X87795Y-44932D01*
X87795Y-45182D01*
X87851Y-45316D01*
X87954Y-45419D01*
X88088Y-45475D01*
X88233Y-45475D01*
X88683Y-45475D01*
X88817Y-45419D01*
X88836Y-45400D01*
X89138Y-45400D01*
X89138Y-45400D01*
X89138Y-45400D01*
X89297Y-45368D01*
X89297Y-45368D01*
X89432Y-45278D01*
X90103Y-44607D01*
X90125Y-44616D01*
X90270Y-44616D01*
X90525Y-44616D01*
X90536Y-44627D01*
X90699Y-44695D01*
X90755Y-44695D01*
X90866Y-44584D01*
X90866Y-44349D01*
X90876Y-44324D01*
X90876Y-44178D01*
X90876Y-43864D01*
X90866Y-43839D01*
X90866Y-43604D01*
X90755Y-43493D01*
X90699Y-43493D01*
X90536Y-43561D01*
X90525Y-43572D01*
X90439Y-43572D01*
X90125Y-43572D01*
X89990Y-43628D01*
X89917Y-43701D01*
X89917Y-43701D01*
X89870Y-43711D01*
X89816Y-43747D01*
X89736Y-43801D01*
X89736Y-43801D01*
X89648Y-43888D01*
X89648Y-42007D01*
X89603Y-41685D01*
X89566Y-41595D01*
X89420Y-41562D01*
X89212Y-41770D01*
X89212Y-41354D01*
X89179Y-41208D01*
X88864Y-41126D01*
X88542Y-41171D01*
X88452Y-41208D01*
X88419Y-41354D01*
X88816Y-41751D01*
X89212Y-41354D01*
X89212Y-41770D01*
X89023Y-41959D01*
X89420Y-42355D01*
X89566Y-42322D01*
X89648Y-42007D01*
X89648Y-43888D01*
X89212Y-44324D01*
X89212Y-42563D01*
X88816Y-42166D01*
X88608Y-42374D01*
X88608Y-41959D01*
X88211Y-41562D01*
X88065Y-41595D01*
X87983Y-41910D01*
X88028Y-42232D01*
X88065Y-42322D01*
X88211Y-42355D01*
X88608Y-41959D01*
X88608Y-42374D01*
X88419Y-42563D01*
X88452Y-42709D01*
X88767Y-42791D01*
X89089Y-42746D01*
X89179Y-42709D01*
X89212Y-42563D01*
X89212Y-44324D01*
X88975Y-44561D01*
X88975Y-44437D01*
X88975Y-44187D01*
X88920Y-44053D01*
X88817Y-43950D01*
X88766Y-43929D01*
X88679Y-43798D01*
X87827Y-42946D01*
X87692Y-42856D01*
X87534Y-42825D01*
X87534Y-42825D01*
X84332Y-42825D01*
X84332Y-42657D01*
X84300Y-42498D01*
X84300Y-42498D01*
X84264Y-42444D01*
X84210Y-42364D01*
X84210Y-42364D01*
X84104Y-42257D01*
X84104Y-42247D01*
X84104Y-41897D01*
X84048Y-41762D01*
X83946Y-41660D01*
X83892Y-41637D01*
X84793Y-40736D01*
X84793Y-40736D01*
X84793Y-40736D01*
X84861Y-40634D01*
X84981Y-40584D01*
X85084Y-40481D01*
X85139Y-40347D01*
X85139Y-40202D01*
X85139Y-39652D01*
X85084Y-39518D01*
X84981Y-39415D01*
X84847Y-39360D01*
X84702Y-39360D01*
X84152Y-39360D01*
X84018Y-39415D01*
X83919Y-39514D01*
X83862Y-39457D01*
X83627Y-39360D01*
X83373Y-39359D01*
X83137Y-39457D01*
X82999Y-39594D01*
X82862Y-39457D01*
X82697Y-39389D01*
X83421Y-38665D01*
X86250Y-38665D01*
X86292Y-38708D01*
X86491Y-38790D01*
X86706Y-38790D01*
X86904Y-38708D01*
X87056Y-38556D01*
X87139Y-38358D01*
X87139Y-38143D01*
X87057Y-37945D01*
X86905Y-37793D01*
X86707Y-37710D01*
X86492Y-37710D01*
X86293Y-37792D01*
X86250Y-37835D01*
X83898Y-37835D01*
X83898Y-36266D01*
X88345Y-36266D01*
X88189Y-36421D01*
X88077Y-36693D01*
X88076Y-36987D01*
X88189Y-37259D01*
X88396Y-37467D01*
X88668Y-37579D01*
X88962Y-37580D01*
X89234Y-37467D01*
X89442Y-37260D01*
X89554Y-36988D01*
X89555Y-36694D01*
X89442Y-36422D01*
X89286Y-36266D01*
X90313Y-36266D01*
X90157Y-36421D01*
X90045Y-36693D01*
X90044Y-36987D01*
X90157Y-37259D01*
X90364Y-37467D01*
X90636Y-37579D01*
X90930Y-37580D01*
X91202Y-37467D01*
X91410Y-37260D01*
X91522Y-36988D01*
X91523Y-36694D01*
X91410Y-36422D01*
X91254Y-36266D01*
X92079Y-36266D01*
X92079Y-46804D01*
X92079Y-46804D01*
G37*
G54D22*
X92079Y-46804D02*
X91545Y-46804D01*
X91545Y-44339D01*
X91545Y-44283D01*
X91545Y-43905D01*
X91545Y-43849D01*
X91523Y-43795D01*
X91523Y-41812D01*
X91410Y-41540D01*
X91203Y-41332D01*
X90931Y-41220D01*
X90637Y-41219D01*
X90365Y-41332D01*
X90157Y-41539D01*
X90045Y-41811D01*
X90044Y-42105D01*
X90157Y-42377D01*
X90364Y-42585D01*
X90636Y-42697D01*
X90930Y-42698D01*
X91202Y-42585D01*
X91410Y-42378D01*
X91522Y-42106D01*
X91523Y-41812D01*
X91523Y-43795D01*
X91477Y-43686D01*
X91352Y-43561D01*
X91189Y-43493D01*
X91134Y-43493D01*
X91023Y-43604D01*
X91023Y-44015D01*
X91434Y-44015D01*
X91545Y-43905D01*
X91545Y-44283D01*
X91434Y-44172D01*
X91023Y-44172D01*
X91023Y-44584D01*
X91134Y-44695D01*
X91189Y-44695D01*
X91352Y-44627D01*
X91477Y-44502D01*
X91545Y-44339D01*
X91545Y-46804D01*
X85231Y-46804D01*
X85231Y-46034D01*
X85189Y-45751D01*
X85163Y-45688D01*
X85026Y-45668D01*
X84831Y-45862D01*
X84831Y-45473D01*
X84811Y-45336D01*
X84534Y-45268D01*
X84251Y-45310D01*
X84188Y-45336D01*
X84168Y-45473D01*
X84500Y-45805D01*
X84831Y-45473D01*
X84831Y-45862D01*
X84694Y-46000D01*
X85026Y-46331D01*
X85163Y-46311D01*
X85231Y-46034D01*
X85231Y-46804D01*
X84831Y-46804D01*
X84831Y-46526D01*
X84500Y-46194D01*
X84168Y-46526D01*
X84188Y-46663D01*
X84465Y-46731D01*
X84748Y-46689D01*
X84811Y-46663D01*
X84831Y-46526D01*
X84831Y-46804D01*
X82251Y-46804D01*
X82346Y-46740D01*
X82446Y-46639D01*
X82626Y-46640D01*
X82862Y-46542D01*
X83000Y-46405D01*
X83137Y-46542D01*
X83372Y-46639D01*
X83626Y-46640D01*
X83862Y-46542D01*
X84042Y-46362D01*
X84112Y-46192D01*
X84305Y-46000D01*
X84112Y-45807D01*
X84042Y-45637D01*
X83862Y-45457D01*
X83627Y-45360D01*
X83446Y-45359D01*
X83329Y-45242D01*
X83194Y-45152D01*
X83036Y-45121D01*
X83036Y-45121D01*
X82793Y-45121D01*
X82793Y-44664D01*
X82793Y-44561D01*
X82726Y-44398D01*
X82601Y-44273D01*
X82438Y-44206D01*
X82410Y-44206D01*
X82300Y-44317D01*
X82300Y-44775D01*
X82682Y-44775D01*
X82793Y-44664D01*
X82793Y-45121D01*
X82778Y-45121D01*
X82682Y-45025D01*
X82300Y-45025D01*
X82300Y-45054D01*
X82214Y-45054D01*
X82214Y-44577D01*
X82200Y-44541D01*
X82200Y-44317D01*
X82089Y-44206D01*
X82061Y-44206D01*
X81898Y-44273D01*
X81887Y-44285D01*
X81777Y-44285D01*
X81607Y-44285D01*
X81543Y-44188D01*
X81408Y-44098D01*
X81250Y-44066D01*
X76194Y-44066D01*
X76035Y-44098D01*
X75981Y-44134D01*
X75954Y-44152D01*
X74910Y-44152D01*
X74910Y-45179D01*
X74763Y-45325D01*
X74673Y-45460D01*
X74641Y-45619D01*
X74641Y-45619D01*
X74641Y-46391D01*
X74641Y-46391D01*
X74673Y-46550D01*
X74763Y-46685D01*
X74818Y-46740D01*
X74818Y-46740D01*
X74818Y-46740D01*
X74914Y-46804D01*
X71699Y-46804D01*
X71699Y-37992D01*
X82920Y-37992D01*
X81553Y-39360D01*
X81373Y-39359D01*
X81137Y-39457D01*
X80999Y-39594D01*
X80862Y-39457D01*
X80627Y-39360D01*
X80373Y-39359D01*
X80137Y-39457D01*
X79999Y-39594D01*
X79862Y-39457D01*
X79627Y-39360D01*
X79373Y-39359D01*
X79137Y-39457D01*
X78999Y-39594D01*
X78862Y-39457D01*
X78627Y-39360D01*
X78373Y-39359D01*
X78137Y-39457D01*
X77999Y-39594D01*
X77862Y-39457D01*
X77627Y-39360D01*
X77446Y-39359D01*
X77329Y-39242D01*
X77194Y-39152D01*
X77035Y-39120D01*
X77035Y-39120D01*
X75327Y-39120D01*
X75327Y-39120D01*
X75169Y-39152D01*
X75034Y-39242D01*
X74759Y-39516D01*
X74669Y-39651D01*
X74638Y-39810D01*
X74638Y-39810D01*
X74638Y-40571D01*
X74638Y-40571D01*
X74669Y-40730D01*
X74759Y-40865D01*
X75742Y-41847D01*
X74781Y-41847D01*
X74739Y-41804D01*
X74540Y-41722D01*
X74326Y-41722D01*
X74127Y-41804D01*
X74096Y-41835D01*
X74096Y-41801D01*
X74010Y-41593D01*
X73851Y-41434D01*
X73644Y-41348D01*
X73419Y-41348D01*
X73211Y-41434D01*
X73052Y-41592D01*
X73031Y-41644D01*
X73010Y-41593D01*
X72851Y-41434D01*
X72644Y-41348D01*
X72419Y-41348D01*
X72211Y-41434D01*
X72052Y-41592D01*
X71966Y-41800D01*
X71966Y-42025D01*
X72052Y-42232D01*
X72211Y-42392D01*
X72262Y-42413D01*
X72211Y-42434D01*
X72052Y-42592D01*
X71966Y-42800D01*
X71966Y-43025D01*
X72052Y-43232D01*
X72211Y-43392D01*
X72262Y-43413D01*
X72211Y-43434D01*
X72052Y-43592D01*
X71966Y-43800D01*
X71966Y-44025D01*
X72052Y-44232D01*
X72211Y-44392D01*
X72418Y-44478D01*
X72643Y-44478D01*
X72851Y-44392D01*
X72892Y-44351D01*
X72892Y-45463D01*
X74292Y-45463D01*
X74292Y-44299D01*
X73944Y-44299D01*
X74010Y-44233D01*
X74096Y-44026D01*
X74096Y-43801D01*
X74010Y-43593D01*
X73851Y-43434D01*
X73800Y-43413D01*
X73851Y-43392D01*
X74010Y-43233D01*
X74096Y-43026D01*
X74096Y-42801D01*
X74017Y-42610D01*
X74126Y-42719D01*
X74312Y-42796D01*
X74175Y-42933D01*
X74092Y-43132D01*
X74092Y-43347D01*
X74174Y-43545D01*
X74326Y-43697D01*
X74524Y-43780D01*
X74739Y-43780D01*
X74938Y-43698D01*
X74981Y-43655D01*
X83917Y-43655D01*
X87362Y-43655D01*
X87824Y-44117D01*
X87795Y-44187D01*
X87795Y-44332D01*
X87795Y-44582D01*
X87838Y-44685D01*
X87795Y-44787D01*
X87795Y-44932D01*
X87795Y-45182D01*
X87851Y-45316D01*
X87954Y-45419D01*
X88088Y-45475D01*
X88233Y-45475D01*
X88683Y-45475D01*
X88817Y-45419D01*
X88836Y-45400D01*
X89138Y-45400D01*
X89138Y-45400D01*
X89138Y-45400D01*
X89297Y-45368D01*
X89297Y-45368D01*
X89432Y-45278D01*
X90103Y-44607D01*
X90125Y-44616D01*
X90270Y-44616D01*
X90525Y-44616D01*
X90536Y-44627D01*
X90699Y-44695D01*
X90755Y-44695D01*
X90866Y-44584D01*
X90866Y-44349D01*
X90876Y-44324D01*
X90876Y-44178D01*
X90876Y-43864D01*
X90866Y-43839D01*
X90866Y-43604D01*
X90755Y-43493D01*
X90699Y-43493D01*
X90536Y-43561D01*
X90525Y-43572D01*
X90439Y-43572D01*
X90125Y-43572D01*
X89990Y-43628D01*
X89917Y-43701D01*
X89917Y-43701D01*
X89870Y-43711D01*
X89816Y-43747D01*
X89736Y-43801D01*
X89736Y-43801D01*
X89648Y-43888D01*
X89648Y-42007D01*
X89603Y-41685D01*
X89566Y-41595D01*
X89420Y-41562D01*
X89212Y-41770D01*
X89212Y-41354D01*
X89179Y-41208D01*
X88864Y-41126D01*
X88542Y-41171D01*
X88452Y-41208D01*
X88419Y-41354D01*
X88816Y-41751D01*
X89212Y-41354D01*
X89212Y-41770D01*
X89023Y-41959D01*
X89420Y-42355D01*
X89566Y-42322D01*
X89648Y-42007D01*
X89648Y-43888D01*
X89212Y-44324D01*
X89212Y-42563D01*
X88816Y-42166D01*
X88608Y-42374D01*
X88608Y-41959D01*
X88211Y-41562D01*
X88065Y-41595D01*
X87983Y-41910D01*
X88028Y-42232D01*
X88065Y-42322D01*
X88211Y-42355D01*
X88608Y-41959D01*
X88608Y-42374D01*
X88419Y-42563D01*
X88452Y-42709D01*
X88767Y-42791D01*
X89089Y-42746D01*
X89179Y-42709D01*
X89212Y-42563D01*
X89212Y-44324D01*
X88975Y-44561D01*
X88975Y-44437D01*
X88975Y-44187D01*
X88920Y-44053D01*
X88817Y-43950D01*
X88766Y-43929D01*
X88679Y-43798D01*
X87827Y-42946D01*
X87692Y-42856D01*
X87534Y-42825D01*
X87534Y-42825D01*
X84332Y-42825D01*
X84332Y-42657D01*
X84300Y-42498D01*
X84300Y-42498D01*
X84264Y-42444D01*
X84210Y-42364D01*
X84210Y-42364D01*
X84104Y-42257D01*
X84104Y-42247D01*
X84104Y-41897D01*
X84048Y-41762D01*
X83946Y-41660D01*
X83892Y-41637D01*
X84793Y-40736D01*
X84793Y-40736D01*
X84793Y-40736D01*
X84861Y-40634D01*
X84981Y-40584D01*
X85084Y-40481D01*
X85139Y-40347D01*
X85139Y-40202D01*
X85139Y-39652D01*
X85084Y-39518D01*
X84981Y-39415D01*
X84847Y-39360D01*
X84702Y-39360D01*
X84152Y-39360D01*
X84018Y-39415D01*
X83919Y-39514D01*
X83862Y-39457D01*
X83627Y-39360D01*
X83373Y-39359D01*
X83137Y-39457D01*
X82999Y-39594D01*
X82862Y-39457D01*
X82697Y-39389D01*
X83421Y-38665D01*
X86250Y-38665D01*
X86292Y-38708D01*
X86491Y-38790D01*
X86706Y-38790D01*
X86904Y-38708D01*
X87056Y-38556D01*
X87139Y-38358D01*
X87139Y-38143D01*
X87057Y-37945D01*
X86905Y-37793D01*
X86707Y-37710D01*
X86492Y-37710D01*
X86293Y-37792D01*
X86250Y-37835D01*
X83898Y-37835D01*
X83898Y-36266D01*
X88345Y-36266D01*
X88189Y-36421D01*
X88077Y-36693D01*
X88076Y-36987D01*
X88189Y-37259D01*
X88396Y-37467D01*
X88668Y-37579D01*
X88962Y-37580D01*
X89234Y-37467D01*
X89442Y-37260D01*
X89554Y-36988D01*
X89555Y-36694D01*
X89442Y-36422D01*
X89286Y-36266D01*
X90313Y-36266D01*
X90157Y-36421D01*
X90045Y-36693D01*
X90044Y-36987D01*
X90157Y-37259D01*
X90364Y-37467D01*
X90636Y-37579D01*
X90930Y-37580D01*
X91202Y-37467D01*
X91410Y-37260D01*
X91522Y-36988D01*
X91523Y-36694D01*
X91410Y-36422D01*
X91254Y-36266D01*
X92079Y-36266D01*
X92079Y-46804D01*
M02*
