M48
;DRILL file {Pcbnew (2013-09-28 BZR 4356)-product} date 25/03/2014 00:12:18
;FORMAT={2:4/ absolute / inch / keep zeros}
FMAT,2
INCH,TZ
T1C0.025
T2C0.032
T3C0.040
T4C0.043
T5C0.120
%
G90
G05
M72
T1
X074433Y-042262
X074633Y-043240
X075871Y-040900
X076880Y-041483
X085768Y-045285
X086599Y-038251
T2
X075500Y-040000
X075500Y-046000
X076500Y-040000
X076500Y-046000
X077500Y-040000
X077500Y-046000
X078500Y-040000
X078500Y-046000
X079500Y-040000
X079500Y-046000
X080500Y-040000
X080500Y-046000
X081500Y-040000
X081500Y-046000
X082500Y-040000
X082500Y-046000
X083500Y-040000
X083500Y-046000
X084500Y-040000
X084500Y-046000
T3
X072531Y-041913
X072531Y-042913
X072531Y-043913
X073531Y-041913
X073531Y-042913
X073531Y-043913
T4
X088816Y-036841
X088816Y-041959
X090784Y-036841
X090784Y-041959
T5
X070472Y-035039
X070472Y-048031
X093307Y-035039
X093307Y-048031
T0
M30
