G04 (created by PCBNEW (2013-09-28 BZR 4356)-product) date 25/03/2014 00:12:11*
%MOIN*%
G04 Gerber Fmt 3.4, Leading zero omitted, Abs format*
%FSLAX34Y34*%
G01*
G70*
G90*
G04 APERTURE LIST*
%ADD10C,0.005906*%
%ADD11C,0.002600*%
%ADD12C,0.010000*%
%ADD13C,0.015000*%
%ADD14C,0.004000*%
%ADD15C,0.012000*%
%ADD16C,0.003900*%
%ADD17C,0.005000*%
%ADD18C,0.010700*%
%ADD19C,0.004300*%
%ADD20C,0.004500*%
%ADD21C,0.080000*%
%ADD22C,0.094800*%
%ADD23R,0.051400X0.051400*%
%ADD24R,0.075000X0.075000*%
%ADD25C,0.075000*%
%ADD26R,0.075000X0.055000*%
%ADD27R,0.065000X0.045000*%
%ADD28R,0.040000X0.070000*%
%ADD29C,0.180000*%
G04 APERTURE END LIST*
G54D10*
G54D11*
X73631Y-44013D02*
X73631Y-43813D01*
X73631Y-43813D02*
X73431Y-43813D01*
X73431Y-44013D02*
X73431Y-43813D01*
X73631Y-44013D02*
X73431Y-44013D01*
X72631Y-44013D02*
X72631Y-43813D01*
X72631Y-43813D02*
X72431Y-43813D01*
X72431Y-44013D02*
X72431Y-43813D01*
X72631Y-44013D02*
X72431Y-44013D01*
X72631Y-43013D02*
X72631Y-42813D01*
X72631Y-42813D02*
X72431Y-42813D01*
X72431Y-43013D02*
X72431Y-42813D01*
X72631Y-43013D02*
X72431Y-43013D01*
X73631Y-43013D02*
X73631Y-42813D01*
X73631Y-42813D02*
X73431Y-42813D01*
X73431Y-43013D02*
X73431Y-42813D01*
X73631Y-43013D02*
X73431Y-43013D01*
X72631Y-42013D02*
X72631Y-41813D01*
X72631Y-41813D02*
X72431Y-41813D01*
X72431Y-42013D02*
X72431Y-41813D01*
X72631Y-42013D02*
X72431Y-42013D01*
X73631Y-42013D02*
X73631Y-41813D01*
X73631Y-41813D02*
X73431Y-41813D01*
X73431Y-42013D02*
X73431Y-41813D01*
X73631Y-42013D02*
X73431Y-42013D01*
G54D12*
X72031Y-44413D02*
X72031Y-41413D01*
X72031Y-41413D02*
X74031Y-41413D01*
X74031Y-41413D02*
X74031Y-44413D01*
X74031Y-44413D02*
X72031Y-44413D01*
G54D13*
X91650Y-41762D02*
X87950Y-41762D01*
X92162Y-37550D02*
X92162Y-41250D01*
X87950Y-37038D02*
X91650Y-37038D01*
X91650Y-41762D02*
G75*
G03X92162Y-41250I0J512D01*
G74*
G01*
X92162Y-37550D02*
G75*
G03X91650Y-37038I-512J0D01*
G74*
G01*
X87438Y-37589D02*
X87438Y-41250D01*
X87438Y-41250D02*
G75*
G03X87950Y-41762I512J0D01*
G74*
G01*
X87950Y-37038D02*
G75*
G03X87438Y-37550I0J-512D01*
G74*
G01*
X91178Y-39400D02*
G75*
G03X91178Y-39400I-1378J0D01*
G74*
G01*
G54D11*
X90826Y-43917D02*
X90826Y-44271D01*
X90826Y-44271D02*
X90983Y-44271D01*
X90983Y-43917D02*
X90983Y-44271D01*
X90826Y-43917D02*
X90983Y-43917D01*
X90315Y-43917D02*
X90315Y-44271D01*
X90315Y-44271D02*
X90472Y-44271D01*
X90472Y-43917D02*
X90472Y-44271D01*
X90315Y-43917D02*
X90472Y-43917D01*
X90649Y-43917D02*
X90649Y-43976D01*
X90649Y-43976D02*
X90767Y-43976D01*
X90767Y-43917D02*
X90767Y-43976D01*
X90649Y-43917D02*
X90767Y-43917D01*
X90649Y-44212D02*
X90649Y-44271D01*
X90649Y-44271D02*
X90767Y-44271D01*
X90767Y-44212D02*
X90767Y-44271D01*
X90649Y-44212D02*
X90767Y-44212D01*
X90649Y-44035D02*
X90649Y-44153D01*
X90649Y-44153D02*
X90767Y-44153D01*
X90767Y-44035D02*
X90767Y-44153D01*
X90649Y-44035D02*
X90767Y-44035D01*
G54D14*
X90826Y-43937D02*
X90472Y-43937D01*
X90826Y-44251D02*
X90472Y-44251D01*
G54D15*
X75000Y-46500D02*
X75000Y-45500D01*
X75000Y-45500D02*
X85000Y-45500D01*
X85000Y-45500D02*
X85000Y-46500D01*
X85000Y-46500D02*
X75000Y-46500D01*
X76000Y-46500D02*
X76000Y-45500D01*
X85000Y-39500D02*
X85000Y-40500D01*
X85000Y-40500D02*
X75000Y-40500D01*
X75000Y-40500D02*
X75000Y-39500D01*
X75000Y-39500D02*
X85000Y-39500D01*
X84000Y-39500D02*
X84000Y-40500D01*
G54D16*
X83214Y-41869D02*
G75*
G03X83214Y-41869I-50J0D01*
G74*
G01*
X83164Y-42319D02*
X83164Y-41919D01*
X83164Y-41919D02*
X83764Y-41919D01*
X83764Y-41919D02*
X83764Y-42319D01*
X83764Y-42719D02*
X83764Y-43119D01*
X83764Y-43119D02*
X83164Y-43119D01*
X83164Y-43119D02*
X83164Y-42719D01*
G54D17*
X88635Y-44235D02*
X88635Y-45135D01*
X88635Y-45135D02*
X88135Y-45135D01*
X88135Y-45135D02*
X88135Y-44235D01*
X88135Y-44235D02*
X88635Y-44235D01*
X82500Y-44450D02*
X82500Y-41550D01*
X77500Y-41550D02*
X77500Y-44450D01*
X82500Y-44450D02*
X77500Y-44450D01*
X77500Y-41550D02*
X82500Y-41550D01*
X77500Y-42750D02*
X78000Y-42750D01*
X78000Y-42750D02*
X78000Y-43250D01*
X78000Y-43250D02*
X77500Y-43250D01*
G54D13*
X71372Y-35039D02*
G75*
G03X71372Y-35039I-900J0D01*
G74*
G01*
X94207Y-35039D02*
G75*
G03X94207Y-35039I-900J0D01*
G74*
G01*
X71372Y-48031D02*
G75*
G03X71372Y-48031I-900J0D01*
G74*
G01*
X94207Y-48031D02*
G75*
G03X94207Y-48031I-900J0D01*
G74*
G01*
G54D15*
X92995Y-40200D02*
X93024Y-40114D01*
X93024Y-39971D01*
X92995Y-39914D01*
X92967Y-39885D01*
X92910Y-39857D01*
X92853Y-39857D01*
X92795Y-39885D01*
X92767Y-39914D01*
X92738Y-39971D01*
X92710Y-40085D01*
X92681Y-40142D01*
X92653Y-40171D01*
X92595Y-40200D01*
X92538Y-40200D01*
X92481Y-40171D01*
X92453Y-40142D01*
X92424Y-40085D01*
X92424Y-39942D01*
X92453Y-39857D01*
X92424Y-39657D02*
X93024Y-39514D01*
X92595Y-39400D01*
X93024Y-39285D01*
X92424Y-39142D01*
X93024Y-38600D02*
X93024Y-38942D01*
X93024Y-38771D02*
X92424Y-38771D01*
X92510Y-38828D01*
X92567Y-38885D01*
X92595Y-38942D01*
X86844Y-43109D02*
X86872Y-43024D01*
X86901Y-42995D01*
X86958Y-42967D01*
X87044Y-42967D01*
X87101Y-42995D01*
X87129Y-43024D01*
X87158Y-43081D01*
X87158Y-43309D01*
X86558Y-43309D01*
X86558Y-43109D01*
X86587Y-43052D01*
X86615Y-43024D01*
X86672Y-42995D01*
X86729Y-42995D01*
X86787Y-43024D01*
X86815Y-43052D01*
X86844Y-43109D01*
X86844Y-43309D01*
X87158Y-42709D02*
X86558Y-42709D01*
X86587Y-42109D02*
X86558Y-42167D01*
X86558Y-42252D01*
X86587Y-42338D01*
X86644Y-42395D01*
X86701Y-42424D01*
X86815Y-42452D01*
X86901Y-42452D01*
X87015Y-42424D01*
X87072Y-42395D01*
X87129Y-42338D01*
X87158Y-42252D01*
X87158Y-42195D01*
X87129Y-42109D01*
X87101Y-42081D01*
X86901Y-42081D01*
X86901Y-42195D01*
X87215Y-41967D02*
X87215Y-41509D01*
X86558Y-41452D02*
X86558Y-41109D01*
X87158Y-41281D02*
X86558Y-41281D01*
X86987Y-40938D02*
X86987Y-40652D01*
X87158Y-40995D02*
X86558Y-40795D01*
X87158Y-40595D01*
X87101Y-40052D02*
X87129Y-40081D01*
X87158Y-40166D01*
X87158Y-40224D01*
X87129Y-40309D01*
X87072Y-40366D01*
X87015Y-40395D01*
X86901Y-40424D01*
X86815Y-40424D01*
X86701Y-40395D01*
X86644Y-40366D01*
X86587Y-40309D01*
X86558Y-40224D01*
X86558Y-40166D01*
X86587Y-40081D01*
X86615Y-40052D01*
X86558Y-39881D02*
X86558Y-39538D01*
X87158Y-39709D02*
X86558Y-39709D01*
X87158Y-39338D02*
X86558Y-39338D01*
X87158Y-38767D02*
X87158Y-39052D01*
X86558Y-39052D01*
X86844Y-38567D02*
X86844Y-38367D01*
X87158Y-38281D02*
X87158Y-38567D01*
X86558Y-38567D01*
X86558Y-38281D01*
X87215Y-38167D02*
X87215Y-37709D01*
X87129Y-37595D02*
X87158Y-37509D01*
X87158Y-37367D01*
X87129Y-37309D01*
X87101Y-37281D01*
X87044Y-37252D01*
X86987Y-37252D01*
X86929Y-37281D01*
X86901Y-37309D01*
X86872Y-37367D01*
X86844Y-37481D01*
X86815Y-37538D01*
X86787Y-37567D01*
X86729Y-37595D01*
X86672Y-37595D01*
X86615Y-37567D01*
X86587Y-37538D01*
X86558Y-37481D01*
X86558Y-37338D01*
X86587Y-37252D01*
X86558Y-37052D02*
X87158Y-36909D01*
X86729Y-36795D01*
X87158Y-36681D01*
X86558Y-36538D01*
X87158Y-36309D02*
X86558Y-36309D01*
X86558Y-36109D02*
X86558Y-35767D01*
X87158Y-35938D02*
X86558Y-35938D01*
X87101Y-35224D02*
X87129Y-35252D01*
X87158Y-35338D01*
X87158Y-35395D01*
X87129Y-35481D01*
X87072Y-35538D01*
X87015Y-35567D01*
X86901Y-35595D01*
X86815Y-35595D01*
X86701Y-35567D01*
X86644Y-35538D01*
X86587Y-35481D01*
X86558Y-35395D01*
X86558Y-35338D01*
X86587Y-35252D01*
X86615Y-35224D01*
X87158Y-34967D02*
X86558Y-34967D01*
X86844Y-34967D02*
X86844Y-34624D01*
X87158Y-34624D02*
X86558Y-34624D01*
G54D17*
X90501Y-43784D02*
X90501Y-43584D01*
X90549Y-43584D01*
X90578Y-43594D01*
X90597Y-43613D01*
X90606Y-43632D01*
X90616Y-43670D01*
X90616Y-43699D01*
X90606Y-43737D01*
X90597Y-43756D01*
X90578Y-43775D01*
X90549Y-43784D01*
X90501Y-43784D01*
X90806Y-43784D02*
X90692Y-43784D01*
X90749Y-43784D02*
X90749Y-43584D01*
X90730Y-43613D01*
X90711Y-43632D01*
X90692Y-43642D01*
X90521Y-44584D02*
X90425Y-44584D01*
X90425Y-44384D01*
X90587Y-44480D02*
X90654Y-44480D01*
X90682Y-44584D02*
X90587Y-44584D01*
X90587Y-44384D01*
X90682Y-44384D01*
X90768Y-44584D02*
X90768Y-44384D01*
X90816Y-44384D01*
X90844Y-44394D01*
X90863Y-44413D01*
X90873Y-44432D01*
X90882Y-44470D01*
X90882Y-44499D01*
X90873Y-44537D01*
X90863Y-44556D01*
X90844Y-44575D01*
X90816Y-44584D01*
X90768Y-44584D01*
G54D18*
X77184Y-45308D02*
X77184Y-44627D01*
X77347Y-44627D01*
X77387Y-44659D01*
X77408Y-44691D01*
X77428Y-44756D01*
X77428Y-44854D01*
X77408Y-44918D01*
X77387Y-44951D01*
X77347Y-44983D01*
X77184Y-44983D01*
X77836Y-45308D02*
X77591Y-45308D01*
X77714Y-45308D02*
X77714Y-44627D01*
X77673Y-44724D01*
X77632Y-44789D01*
X77591Y-44821D01*
G54D15*
G54D12*
X81461Y-45214D02*
X81442Y-45242D01*
X81385Y-45271D01*
X81347Y-45271D01*
X81290Y-45242D01*
X81252Y-45185D01*
X81233Y-45128D01*
X81214Y-45014D01*
X81214Y-44928D01*
X81233Y-44814D01*
X81252Y-44757D01*
X81290Y-44700D01*
X81347Y-44671D01*
X81385Y-44671D01*
X81442Y-44700D01*
X81461Y-44728D01*
X81709Y-44671D02*
X81785Y-44671D01*
X81823Y-44700D01*
X81861Y-44757D01*
X81880Y-44871D01*
X81880Y-45071D01*
X81861Y-45185D01*
X81823Y-45242D01*
X81785Y-45271D01*
X81709Y-45271D01*
X81671Y-45242D01*
X81633Y-45185D01*
X81614Y-45071D01*
X81614Y-44871D01*
X81633Y-44757D01*
X81671Y-44700D01*
X81709Y-44671D01*
X82052Y-45271D02*
X82052Y-44671D01*
X82280Y-45271D01*
X82280Y-44671D01*
X82471Y-45271D02*
X82471Y-44671D01*
X82700Y-45271D01*
X82700Y-44671D01*
X82795Y-45328D02*
X83100Y-45328D01*
X83404Y-45271D02*
X83176Y-45271D01*
X83290Y-45271D02*
X83290Y-44671D01*
X83252Y-44757D01*
X83214Y-44814D01*
X83176Y-44842D01*
X83652Y-44671D02*
X83690Y-44671D01*
X83728Y-44700D01*
X83747Y-44728D01*
X83766Y-44785D01*
X83785Y-44900D01*
X83785Y-45042D01*
X83766Y-45157D01*
X83747Y-45214D01*
X83728Y-45242D01*
X83690Y-45271D01*
X83652Y-45271D01*
X83614Y-45242D01*
X83595Y-45214D01*
X83576Y-45157D01*
X83557Y-45042D01*
X83557Y-44900D01*
X83576Y-44785D01*
X83595Y-44728D01*
X83614Y-44700D01*
X83652Y-44671D01*
G54D15*
G54D18*
X82184Y-41308D02*
X82184Y-40627D01*
X82347Y-40627D01*
X82387Y-40659D01*
X82408Y-40691D01*
X82428Y-40756D01*
X82428Y-40854D01*
X82408Y-40918D01*
X82387Y-40951D01*
X82347Y-40983D01*
X82184Y-40983D01*
X82591Y-40691D02*
X82612Y-40659D01*
X82652Y-40627D01*
X82754Y-40627D01*
X82795Y-40659D01*
X82815Y-40691D01*
X82836Y-40756D01*
X82836Y-40821D01*
X82815Y-40918D01*
X82571Y-41308D01*
X82836Y-41308D01*
G54D15*
G54D12*
X76461Y-41214D02*
X76442Y-41242D01*
X76385Y-41271D01*
X76347Y-41271D01*
X76290Y-41242D01*
X76252Y-41185D01*
X76233Y-41128D01*
X76214Y-41014D01*
X76214Y-40928D01*
X76233Y-40814D01*
X76252Y-40757D01*
X76290Y-40700D01*
X76347Y-40671D01*
X76385Y-40671D01*
X76442Y-40700D01*
X76461Y-40728D01*
X76709Y-40671D02*
X76785Y-40671D01*
X76823Y-40700D01*
X76861Y-40757D01*
X76880Y-40871D01*
X76880Y-41071D01*
X76861Y-41185D01*
X76823Y-41242D01*
X76785Y-41271D01*
X76709Y-41271D01*
X76671Y-41242D01*
X76633Y-41185D01*
X76614Y-41071D01*
X76614Y-40871D01*
X76633Y-40757D01*
X76671Y-40700D01*
X76709Y-40671D01*
X77052Y-41271D02*
X77052Y-40671D01*
X77280Y-41271D01*
X77280Y-40671D01*
X77471Y-41271D02*
X77471Y-40671D01*
X77700Y-41271D01*
X77700Y-40671D01*
X77795Y-41328D02*
X78100Y-41328D01*
X78404Y-41271D02*
X78176Y-41271D01*
X78290Y-41271D02*
X78290Y-40671D01*
X78252Y-40757D01*
X78214Y-40814D01*
X78176Y-40842D01*
X78652Y-40671D02*
X78690Y-40671D01*
X78728Y-40700D01*
X78747Y-40728D01*
X78766Y-40785D01*
X78785Y-40900D01*
X78785Y-41042D01*
X78766Y-41157D01*
X78747Y-41214D01*
X78728Y-41242D01*
X78690Y-41271D01*
X78652Y-41271D01*
X78614Y-41242D01*
X78595Y-41214D01*
X78576Y-41157D01*
X78557Y-41042D01*
X78557Y-40900D01*
X78576Y-40785D01*
X78595Y-40728D01*
X78614Y-40700D01*
X78652Y-40671D01*
G54D15*
G54D19*
X83678Y-42552D02*
X83584Y-42618D01*
X83678Y-42665D02*
X83481Y-42665D01*
X83481Y-42590D01*
X83491Y-42571D01*
X83500Y-42561D01*
X83519Y-42552D01*
X83547Y-42552D01*
X83566Y-42561D01*
X83575Y-42571D01*
X83584Y-42590D01*
X83584Y-42665D01*
X83678Y-42364D02*
X83678Y-42477D01*
X83678Y-42421D02*
X83481Y-42421D01*
X83509Y-42439D01*
X83528Y-42458D01*
X83537Y-42477D01*
X83403Y-42636D02*
X83403Y-42749D01*
X83403Y-42693D02*
X83206Y-42693D01*
X83234Y-42711D01*
X83253Y-42730D01*
X83262Y-42749D01*
X83206Y-42514D02*
X83206Y-42496D01*
X83216Y-42477D01*
X83225Y-42468D01*
X83244Y-42458D01*
X83281Y-42449D01*
X83328Y-42449D01*
X83366Y-42458D01*
X83384Y-42468D01*
X83394Y-42477D01*
X83403Y-42496D01*
X83403Y-42514D01*
X83394Y-42533D01*
X83384Y-42543D01*
X83366Y-42552D01*
X83328Y-42561D01*
X83281Y-42561D01*
X83244Y-42552D01*
X83225Y-42543D01*
X83216Y-42533D01*
X83206Y-42514D01*
X83403Y-42364D02*
X83206Y-42364D01*
X83328Y-42346D02*
X83403Y-42289D01*
X83272Y-42289D02*
X83347Y-42364D01*
G54D20*
X88476Y-44715D02*
X88381Y-44775D01*
X88476Y-44817D02*
X88276Y-44817D01*
X88276Y-44749D01*
X88285Y-44732D01*
X88295Y-44723D01*
X88314Y-44715D01*
X88342Y-44715D01*
X88362Y-44723D01*
X88371Y-44732D01*
X88381Y-44749D01*
X88381Y-44817D01*
X88295Y-44646D02*
X88285Y-44637D01*
X88276Y-44620D01*
X88276Y-44577D01*
X88285Y-44560D01*
X88295Y-44552D01*
X88314Y-44543D01*
X88333Y-44543D01*
X88362Y-44552D01*
X88476Y-44655D01*
X88476Y-44543D01*
G54D17*
X79542Y-42171D02*
X79542Y-42657D01*
X79571Y-42714D01*
X79600Y-42742D01*
X79657Y-42771D01*
X79771Y-42771D01*
X79828Y-42742D01*
X79857Y-42714D01*
X79885Y-42657D01*
X79885Y-42171D01*
X80485Y-42771D02*
X80142Y-42771D01*
X80314Y-42771D02*
X80314Y-42171D01*
X80257Y-42257D01*
X80200Y-42314D01*
X80142Y-42342D01*
X77952Y-43600D02*
X78190Y-43600D01*
X77904Y-43771D02*
X78071Y-43171D01*
X78238Y-43771D01*
X78333Y-43171D02*
X78619Y-43171D01*
X78476Y-43771D02*
X78476Y-43171D01*
X78714Y-43171D02*
X79000Y-43171D01*
X78857Y-43771D02*
X78857Y-43171D01*
X79166Y-43771D02*
X79166Y-43171D01*
X79404Y-43771D02*
X79404Y-43171D01*
X79690Y-43771D01*
X79690Y-43171D01*
X80023Y-43485D02*
X80023Y-43771D01*
X79857Y-43171D02*
X80023Y-43485D01*
X80190Y-43171D01*
X80619Y-43771D02*
X80333Y-43771D01*
X80476Y-43771D02*
X80476Y-43171D01*
X80428Y-43257D01*
X80380Y-43314D01*
X80333Y-43342D01*
X81047Y-43171D02*
X80952Y-43171D01*
X80904Y-43200D01*
X80880Y-43228D01*
X80833Y-43314D01*
X80809Y-43428D01*
X80809Y-43657D01*
X80833Y-43714D01*
X80857Y-43742D01*
X80904Y-43771D01*
X80999Y-43771D01*
X81047Y-43742D01*
X81071Y-43714D01*
X81095Y-43657D01*
X81095Y-43514D01*
X81071Y-43457D01*
X81047Y-43428D01*
X80999Y-43400D01*
X80904Y-43400D01*
X80857Y-43428D01*
X80833Y-43457D01*
X80809Y-43514D01*
X81261Y-43171D02*
X81571Y-43171D01*
X81404Y-43400D01*
X81476Y-43400D01*
X81523Y-43428D01*
X81547Y-43457D01*
X81571Y-43514D01*
X81571Y-43657D01*
X81547Y-43714D01*
X81523Y-43742D01*
X81476Y-43771D01*
X81333Y-43771D01*
X81285Y-43742D01*
X81261Y-43714D01*
X82000Y-43371D02*
X82000Y-43771D01*
X81880Y-43142D02*
X81761Y-43571D01*
X82071Y-43571D01*
G54D12*
X70081Y-34020D02*
X69853Y-34020D01*
X69967Y-34020D02*
X69967Y-33620D01*
X69929Y-33677D01*
X69891Y-33715D01*
X69853Y-33734D01*
X70253Y-34020D02*
X70253Y-33620D01*
X70405Y-33620D01*
X70443Y-33639D01*
X70462Y-33658D01*
X70481Y-33696D01*
X70481Y-33753D01*
X70462Y-33791D01*
X70443Y-33810D01*
X70405Y-33829D01*
X70253Y-33829D01*
X70653Y-34020D02*
X70653Y-33620D01*
X70843Y-34020D02*
X70843Y-33620D01*
X71072Y-34020D01*
X71072Y-33620D01*
X92916Y-34020D02*
X92688Y-34020D01*
X92802Y-34020D02*
X92802Y-33620D01*
X92764Y-33677D01*
X92726Y-33715D01*
X92688Y-33734D01*
X93088Y-34020D02*
X93088Y-33620D01*
X93240Y-33620D01*
X93278Y-33639D01*
X93297Y-33658D01*
X93316Y-33696D01*
X93316Y-33753D01*
X93297Y-33791D01*
X93278Y-33810D01*
X93240Y-33829D01*
X93088Y-33829D01*
X93488Y-34020D02*
X93488Y-33620D01*
X93678Y-34020D02*
X93678Y-33620D01*
X93907Y-34020D01*
X93907Y-33620D01*
X70081Y-47012D02*
X69853Y-47012D01*
X69967Y-47012D02*
X69967Y-46612D01*
X69929Y-46669D01*
X69891Y-46707D01*
X69853Y-46726D01*
X70253Y-47012D02*
X70253Y-46612D01*
X70405Y-46612D01*
X70443Y-46631D01*
X70462Y-46650D01*
X70481Y-46688D01*
X70481Y-46745D01*
X70462Y-46783D01*
X70443Y-46802D01*
X70405Y-46821D01*
X70253Y-46821D01*
X70653Y-47012D02*
X70653Y-46612D01*
X70843Y-47012D02*
X70843Y-46612D01*
X71072Y-47012D01*
X71072Y-46612D01*
X92916Y-47012D02*
X92688Y-47012D01*
X92802Y-47012D02*
X92802Y-46612D01*
X92764Y-46669D01*
X92726Y-46707D01*
X92688Y-46726D01*
X93088Y-47012D02*
X93088Y-46612D01*
X93240Y-46612D01*
X93278Y-46631D01*
X93297Y-46650D01*
X93316Y-46688D01*
X93316Y-46745D01*
X93297Y-46783D01*
X93278Y-46802D01*
X93240Y-46821D01*
X93088Y-46821D01*
X93488Y-47012D02*
X93488Y-46612D01*
X93678Y-47012D02*
X93678Y-46612D01*
X93907Y-47012D01*
X93907Y-46612D01*
%LPC*%
G54D21*
X73531Y-43913D03*
X72531Y-43913D03*
X73531Y-42913D03*
X72531Y-42913D03*
X73531Y-41913D03*
X72531Y-41913D03*
G54D22*
X88816Y-36841D03*
X90784Y-36841D03*
X88816Y-41959D03*
X90784Y-41959D03*
G54D23*
X90354Y-44094D03*
X90944Y-44094D03*
G54D24*
X75500Y-46000D03*
G54D25*
X76500Y-46000D03*
X77500Y-46000D03*
X78500Y-46000D03*
X79500Y-46000D03*
X80500Y-46000D03*
X81500Y-46000D03*
X82500Y-46000D03*
X83500Y-46000D03*
X84500Y-46000D03*
G54D24*
X84500Y-40000D03*
G54D25*
X83500Y-40000D03*
X82500Y-40000D03*
X81500Y-40000D03*
X80500Y-40000D03*
X79500Y-40000D03*
X78500Y-40000D03*
X77500Y-40000D03*
X76500Y-40000D03*
X75500Y-40000D03*
G54D26*
X83464Y-42144D03*
X83464Y-42894D03*
G54D27*
X88385Y-44385D03*
X88385Y-44985D03*
G54D28*
X82250Y-41100D03*
X81750Y-41100D03*
X81250Y-41100D03*
X80750Y-41100D03*
X80250Y-41100D03*
X79750Y-41100D03*
X79250Y-41100D03*
X78750Y-41100D03*
X78250Y-41100D03*
X77750Y-41100D03*
X77750Y-44900D03*
X78250Y-44900D03*
X78750Y-44900D03*
X79250Y-44900D03*
X79750Y-44900D03*
X80250Y-44900D03*
X80750Y-44900D03*
X81250Y-44900D03*
X81750Y-44900D03*
X82250Y-44900D03*
G54D29*
X70472Y-35039D03*
X93307Y-35039D03*
X70472Y-48031D03*
X93307Y-48031D03*
M02*
