G04 (created by PCBNEW (2013-09-28 BZR 4356)-product) date 25/03/2014 00:12:11*
%MOIN*%
G04 Gerber Fmt 3.4, Leading zero omitted, Abs format*
%FSLAX34Y34*%
G01*
G70*
G90*
G04 APERTURE LIST*
%ADD10C,0.005906*%
%ADD11C,0.060000*%
%ADD12C,0.074800*%
%ADD13R,0.055000X0.055000*%
%ADD14C,0.055000*%
%ADD15C,0.160000*%
%ADD16C,0.035000*%
%ADD17C,0.010000*%
G04 APERTURE END LIST*
G54D10*
G54D11*
X73531Y-43913D03*
X72531Y-43913D03*
X73531Y-42913D03*
X72531Y-42913D03*
X73531Y-41913D03*
X72531Y-41913D03*
G54D12*
X88816Y-36841D03*
X90784Y-36841D03*
X88816Y-41959D03*
X90784Y-41959D03*
G54D13*
X75500Y-46000D03*
G54D14*
X76500Y-46000D03*
X77500Y-46000D03*
X78500Y-46000D03*
X79500Y-46000D03*
X80500Y-46000D03*
X81500Y-46000D03*
X82500Y-46000D03*
X83500Y-46000D03*
X84500Y-46000D03*
G54D13*
X84500Y-40000D03*
G54D14*
X83500Y-40000D03*
X82500Y-40000D03*
X81500Y-40000D03*
X80500Y-40000D03*
X79500Y-40000D03*
X78500Y-40000D03*
X77500Y-40000D03*
X76500Y-40000D03*
X75500Y-40000D03*
G54D15*
X70472Y-35039D03*
X93307Y-35039D03*
X70472Y-48031D03*
X93307Y-48031D03*
G54D16*
X85768Y-45285D03*
X76880Y-41482D03*
X74433Y-42262D03*
X75870Y-40900D03*
X86599Y-38250D03*
X74632Y-43240D03*
G54D17*
X85768Y-44752D02*
X85768Y-45285D01*
X86022Y-44752D02*
X85768Y-44752D01*
X88815Y-41959D02*
X86022Y-44752D01*
X72032Y-42412D02*
X72531Y-41913D01*
X72032Y-44083D02*
X72032Y-42412D01*
X72702Y-44752D02*
X72032Y-44083D01*
X85768Y-44752D02*
X72702Y-44752D01*
X74449Y-43913D02*
X76880Y-41482D01*
X73531Y-43913D02*
X74449Y-43913D01*
X74182Y-42262D02*
X74433Y-42262D01*
X73531Y-42913D02*
X74182Y-42262D01*
X73854Y-40900D02*
X75870Y-40900D01*
X73063Y-41691D02*
X73854Y-40900D01*
X73063Y-42381D02*
X73063Y-41691D01*
X72531Y-42913D02*
X73063Y-42381D01*
X87406Y-38250D02*
X88815Y-36840D01*
X86599Y-38250D02*
X87406Y-38250D01*
X73874Y-41570D02*
X73531Y-41913D01*
X76307Y-41570D02*
X73874Y-41570D01*
X76307Y-41570D02*
X76307Y-41570D01*
X76738Y-41139D02*
X76307Y-41570D01*
X84833Y-41139D02*
X76738Y-41139D01*
X86599Y-39373D02*
X84833Y-41139D01*
X86599Y-38250D02*
X86599Y-39373D01*
X74459Y-43413D02*
X74632Y-43240D01*
X73031Y-43413D02*
X74459Y-43413D01*
X72531Y-43913D02*
X73031Y-43413D01*
G54D10*
G36*
X92079Y-46804D02*
X91523Y-46804D01*
X91523Y-41812D01*
X91410Y-41540D01*
X91203Y-41332D01*
X90931Y-41220D01*
X90637Y-41219D01*
X90365Y-41332D01*
X90157Y-41539D01*
X90045Y-41811D01*
X90044Y-42105D01*
X90157Y-42377D01*
X90364Y-42585D01*
X90636Y-42697D01*
X90930Y-42698D01*
X91202Y-42585D01*
X91410Y-42378D01*
X91522Y-42106D01*
X91523Y-41812D01*
X91523Y-46804D01*
X89648Y-46804D01*
X89648Y-42007D01*
X89603Y-41685D01*
X89566Y-41595D01*
X89420Y-41562D01*
X89212Y-41770D01*
X89212Y-41354D01*
X89179Y-41208D01*
X88864Y-41126D01*
X88542Y-41171D01*
X88452Y-41208D01*
X88419Y-41354D01*
X88816Y-41751D01*
X89212Y-41354D01*
X89212Y-41770D01*
X89023Y-41959D01*
X89420Y-42355D01*
X89566Y-42322D01*
X89648Y-42007D01*
X89648Y-46804D01*
X89212Y-46804D01*
X89212Y-42563D01*
X88816Y-42166D01*
X88608Y-42374D01*
X88608Y-41959D01*
X88211Y-41562D01*
X88065Y-41595D01*
X87983Y-41910D01*
X88028Y-42232D01*
X88065Y-42322D01*
X88211Y-42355D01*
X88608Y-41959D01*
X88608Y-42374D01*
X88419Y-42563D01*
X88452Y-42709D01*
X88767Y-42791D01*
X89089Y-42746D01*
X89179Y-42709D01*
X89212Y-42563D01*
X89212Y-46804D01*
X85231Y-46804D01*
X85231Y-46034D01*
X85189Y-45751D01*
X85163Y-45688D01*
X85026Y-45668D01*
X84831Y-45862D01*
X84831Y-45473D01*
X84811Y-45336D01*
X84534Y-45268D01*
X84251Y-45310D01*
X84188Y-45336D01*
X84168Y-45473D01*
X84500Y-45805D01*
X84831Y-45473D01*
X84831Y-45862D01*
X84694Y-46000D01*
X85026Y-46331D01*
X85163Y-46311D01*
X85231Y-46034D01*
X85231Y-46804D01*
X84831Y-46804D01*
X84831Y-46526D01*
X84500Y-46194D01*
X84305Y-46388D01*
X84305Y-46000D01*
X84112Y-45807D01*
X84042Y-45637D01*
X83862Y-45457D01*
X83627Y-45360D01*
X83373Y-45359D01*
X83137Y-45457D01*
X82999Y-45594D01*
X82862Y-45457D01*
X82627Y-45360D01*
X82373Y-45359D01*
X82137Y-45457D01*
X81999Y-45594D01*
X81862Y-45457D01*
X81627Y-45360D01*
X81373Y-45359D01*
X81137Y-45457D01*
X80999Y-45594D01*
X80862Y-45457D01*
X80627Y-45360D01*
X80373Y-45359D01*
X80137Y-45457D01*
X79999Y-45594D01*
X79862Y-45457D01*
X79627Y-45360D01*
X79373Y-45359D01*
X79137Y-45457D01*
X78999Y-45594D01*
X78862Y-45457D01*
X78627Y-45360D01*
X78373Y-45359D01*
X78137Y-45457D01*
X77999Y-45594D01*
X77862Y-45457D01*
X77627Y-45360D01*
X77373Y-45359D01*
X77137Y-45457D01*
X76999Y-45594D01*
X76862Y-45457D01*
X76627Y-45360D01*
X76373Y-45359D01*
X76137Y-45457D01*
X76080Y-45514D01*
X75981Y-45415D01*
X75847Y-45360D01*
X75702Y-45360D01*
X75152Y-45360D01*
X75018Y-45415D01*
X74915Y-45518D01*
X74860Y-45652D01*
X74860Y-45797D01*
X74860Y-46347D01*
X74915Y-46481D01*
X75018Y-46584D01*
X75152Y-46639D01*
X75297Y-46639D01*
X75847Y-46639D01*
X75981Y-46584D01*
X76080Y-46485D01*
X76137Y-46542D01*
X76372Y-46639D01*
X76626Y-46640D01*
X76862Y-46542D01*
X77000Y-46405D01*
X77137Y-46542D01*
X77372Y-46639D01*
X77626Y-46640D01*
X77862Y-46542D01*
X78000Y-46405D01*
X78137Y-46542D01*
X78372Y-46639D01*
X78626Y-46640D01*
X78862Y-46542D01*
X79000Y-46405D01*
X79137Y-46542D01*
X79372Y-46639D01*
X79626Y-46640D01*
X79862Y-46542D01*
X80000Y-46405D01*
X80137Y-46542D01*
X80372Y-46639D01*
X80626Y-46640D01*
X80862Y-46542D01*
X81000Y-46405D01*
X81137Y-46542D01*
X81372Y-46639D01*
X81626Y-46640D01*
X81862Y-46542D01*
X82000Y-46405D01*
X82137Y-46542D01*
X82372Y-46639D01*
X82626Y-46640D01*
X82862Y-46542D01*
X83000Y-46405D01*
X83137Y-46542D01*
X83372Y-46639D01*
X83626Y-46640D01*
X83862Y-46542D01*
X84042Y-46362D01*
X84112Y-46192D01*
X84305Y-46000D01*
X84305Y-46388D01*
X84168Y-46526D01*
X84188Y-46663D01*
X84465Y-46731D01*
X84748Y-46689D01*
X84811Y-46663D01*
X84831Y-46526D01*
X84831Y-46804D01*
X71699Y-46804D01*
X71699Y-36266D01*
X88345Y-36266D01*
X88189Y-36421D01*
X88077Y-36693D01*
X88076Y-36987D01*
X88078Y-36991D01*
X87234Y-37835D01*
X86947Y-37835D01*
X86905Y-37793D01*
X86707Y-37710D01*
X86492Y-37710D01*
X86293Y-37792D01*
X86141Y-37944D01*
X86059Y-38142D01*
X86059Y-38357D01*
X86141Y-38556D01*
X86184Y-38599D01*
X86184Y-39201D01*
X85139Y-40246D01*
X85139Y-40202D01*
X85139Y-39652D01*
X85084Y-39518D01*
X84981Y-39415D01*
X84847Y-39360D01*
X84702Y-39360D01*
X84152Y-39360D01*
X84018Y-39415D01*
X83919Y-39514D01*
X83862Y-39457D01*
X83627Y-39360D01*
X83373Y-39359D01*
X83137Y-39457D01*
X82999Y-39594D01*
X82862Y-39457D01*
X82627Y-39360D01*
X82373Y-39359D01*
X82137Y-39457D01*
X81999Y-39594D01*
X81862Y-39457D01*
X81627Y-39360D01*
X81373Y-39359D01*
X81137Y-39457D01*
X80999Y-39594D01*
X80862Y-39457D01*
X80627Y-39360D01*
X80373Y-39359D01*
X80137Y-39457D01*
X79999Y-39594D01*
X79862Y-39457D01*
X79627Y-39360D01*
X79373Y-39359D01*
X79137Y-39457D01*
X78999Y-39594D01*
X78862Y-39457D01*
X78627Y-39360D01*
X78373Y-39359D01*
X78137Y-39457D01*
X77999Y-39594D01*
X77862Y-39457D01*
X77627Y-39360D01*
X77373Y-39359D01*
X77137Y-39457D01*
X76999Y-39594D01*
X76862Y-39457D01*
X76627Y-39360D01*
X76373Y-39359D01*
X76137Y-39457D01*
X75999Y-39594D01*
X75862Y-39457D01*
X75627Y-39360D01*
X75373Y-39359D01*
X75137Y-39457D01*
X74957Y-39637D01*
X74860Y-39872D01*
X74859Y-40126D01*
X74957Y-40362D01*
X75080Y-40485D01*
X73854Y-40485D01*
X73854Y-40485D01*
X73696Y-40516D01*
X73561Y-40606D01*
X73561Y-40606D01*
X72863Y-41304D01*
X72849Y-41225D01*
X72562Y-41155D01*
X72270Y-41201D01*
X72213Y-41225D01*
X72189Y-41363D01*
X72531Y-41705D01*
X72537Y-41700D01*
X72648Y-41811D01*
X72648Y-42015D01*
X72537Y-42126D01*
X72531Y-42121D01*
X72404Y-42248D01*
X72399Y-42248D01*
X72323Y-42279D01*
X72323Y-41913D01*
X71981Y-41571D01*
X71843Y-41594D01*
X71773Y-41882D01*
X71819Y-42174D01*
X71843Y-42231D01*
X71981Y-42255D01*
X72323Y-41913D01*
X72323Y-42279D01*
X72155Y-42349D01*
X71968Y-42536D01*
X71866Y-42780D01*
X71866Y-43045D01*
X71967Y-43289D01*
X72091Y-43413D01*
X71968Y-43536D01*
X71866Y-43780D01*
X71866Y-44045D01*
X71967Y-44289D01*
X72154Y-44476D01*
X72398Y-44578D01*
X72663Y-44578D01*
X72907Y-44477D01*
X73031Y-44353D01*
X73154Y-44476D01*
X73398Y-44578D01*
X73663Y-44578D01*
X73907Y-44477D01*
X74057Y-44328D01*
X74449Y-44328D01*
X74449Y-44328D01*
X74449Y-44328D01*
X74608Y-44296D01*
X74608Y-44296D01*
X74743Y-44206D01*
X76927Y-42022D01*
X76987Y-42022D01*
X77185Y-41940D01*
X77337Y-41789D01*
X77420Y-41590D01*
X77420Y-41554D01*
X84833Y-41554D01*
X84833Y-41554D01*
X84833Y-41554D01*
X84991Y-41523D01*
X84991Y-41523D01*
X85126Y-41433D01*
X86892Y-39667D01*
X86892Y-39667D01*
X86892Y-39667D01*
X86946Y-39586D01*
X86982Y-39532D01*
X86982Y-39532D01*
X87014Y-39373D01*
X87014Y-39373D01*
X87014Y-39373D01*
X87014Y-38665D01*
X87406Y-38665D01*
X87406Y-38665D01*
X87406Y-38665D01*
X87565Y-38634D01*
X87565Y-38634D01*
X87699Y-38544D01*
X88665Y-37578D01*
X88668Y-37579D01*
X88962Y-37580D01*
X89234Y-37467D01*
X89442Y-37260D01*
X89554Y-36988D01*
X89555Y-36694D01*
X89442Y-36422D01*
X89286Y-36266D01*
X90313Y-36266D01*
X90157Y-36421D01*
X90045Y-36693D01*
X90044Y-36987D01*
X90157Y-37259D01*
X90364Y-37467D01*
X90636Y-37579D01*
X90930Y-37580D01*
X91202Y-37467D01*
X91410Y-37260D01*
X91522Y-36988D01*
X91523Y-36694D01*
X91410Y-36422D01*
X91254Y-36266D01*
X92079Y-36266D01*
X92079Y-46804D01*
X92079Y-46804D01*
G37*
G54D17*
X92079Y-46804D02*
X91523Y-46804D01*
X91523Y-41812D01*
X91410Y-41540D01*
X91203Y-41332D01*
X90931Y-41220D01*
X90637Y-41219D01*
X90365Y-41332D01*
X90157Y-41539D01*
X90045Y-41811D01*
X90044Y-42105D01*
X90157Y-42377D01*
X90364Y-42585D01*
X90636Y-42697D01*
X90930Y-42698D01*
X91202Y-42585D01*
X91410Y-42378D01*
X91522Y-42106D01*
X91523Y-41812D01*
X91523Y-46804D01*
X89648Y-46804D01*
X89648Y-42007D01*
X89603Y-41685D01*
X89566Y-41595D01*
X89420Y-41562D01*
X89212Y-41770D01*
X89212Y-41354D01*
X89179Y-41208D01*
X88864Y-41126D01*
X88542Y-41171D01*
X88452Y-41208D01*
X88419Y-41354D01*
X88816Y-41751D01*
X89212Y-41354D01*
X89212Y-41770D01*
X89023Y-41959D01*
X89420Y-42355D01*
X89566Y-42322D01*
X89648Y-42007D01*
X89648Y-46804D01*
X89212Y-46804D01*
X89212Y-42563D01*
X88816Y-42166D01*
X88608Y-42374D01*
X88608Y-41959D01*
X88211Y-41562D01*
X88065Y-41595D01*
X87983Y-41910D01*
X88028Y-42232D01*
X88065Y-42322D01*
X88211Y-42355D01*
X88608Y-41959D01*
X88608Y-42374D01*
X88419Y-42563D01*
X88452Y-42709D01*
X88767Y-42791D01*
X89089Y-42746D01*
X89179Y-42709D01*
X89212Y-42563D01*
X89212Y-46804D01*
X85231Y-46804D01*
X85231Y-46034D01*
X85189Y-45751D01*
X85163Y-45688D01*
X85026Y-45668D01*
X84831Y-45862D01*
X84831Y-45473D01*
X84811Y-45336D01*
X84534Y-45268D01*
X84251Y-45310D01*
X84188Y-45336D01*
X84168Y-45473D01*
X84500Y-45805D01*
X84831Y-45473D01*
X84831Y-45862D01*
X84694Y-46000D01*
X85026Y-46331D01*
X85163Y-46311D01*
X85231Y-46034D01*
X85231Y-46804D01*
X84831Y-46804D01*
X84831Y-46526D01*
X84500Y-46194D01*
X84305Y-46388D01*
X84305Y-46000D01*
X84112Y-45807D01*
X84042Y-45637D01*
X83862Y-45457D01*
X83627Y-45360D01*
X83373Y-45359D01*
X83137Y-45457D01*
X82999Y-45594D01*
X82862Y-45457D01*
X82627Y-45360D01*
X82373Y-45359D01*
X82137Y-45457D01*
X81999Y-45594D01*
X81862Y-45457D01*
X81627Y-45360D01*
X81373Y-45359D01*
X81137Y-45457D01*
X80999Y-45594D01*
X80862Y-45457D01*
X80627Y-45360D01*
X80373Y-45359D01*
X80137Y-45457D01*
X79999Y-45594D01*
X79862Y-45457D01*
X79627Y-45360D01*
X79373Y-45359D01*
X79137Y-45457D01*
X78999Y-45594D01*
X78862Y-45457D01*
X78627Y-45360D01*
X78373Y-45359D01*
X78137Y-45457D01*
X77999Y-45594D01*
X77862Y-45457D01*
X77627Y-45360D01*
X77373Y-45359D01*
X77137Y-45457D01*
X76999Y-45594D01*
X76862Y-45457D01*
X76627Y-45360D01*
X76373Y-45359D01*
X76137Y-45457D01*
X76080Y-45514D01*
X75981Y-45415D01*
X75847Y-45360D01*
X75702Y-45360D01*
X75152Y-45360D01*
X75018Y-45415D01*
X74915Y-45518D01*
X74860Y-45652D01*
X74860Y-45797D01*
X74860Y-46347D01*
X74915Y-46481D01*
X75018Y-46584D01*
X75152Y-46639D01*
X75297Y-46639D01*
X75847Y-46639D01*
X75981Y-46584D01*
X76080Y-46485D01*
X76137Y-46542D01*
X76372Y-46639D01*
X76626Y-46640D01*
X76862Y-46542D01*
X77000Y-46405D01*
X77137Y-46542D01*
X77372Y-46639D01*
X77626Y-46640D01*
X77862Y-46542D01*
X78000Y-46405D01*
X78137Y-46542D01*
X78372Y-46639D01*
X78626Y-46640D01*
X78862Y-46542D01*
X79000Y-46405D01*
X79137Y-46542D01*
X79372Y-46639D01*
X79626Y-46640D01*
X79862Y-46542D01*
X80000Y-46405D01*
X80137Y-46542D01*
X80372Y-46639D01*
X80626Y-46640D01*
X80862Y-46542D01*
X81000Y-46405D01*
X81137Y-46542D01*
X81372Y-46639D01*
X81626Y-46640D01*
X81862Y-46542D01*
X82000Y-46405D01*
X82137Y-46542D01*
X82372Y-46639D01*
X82626Y-46640D01*
X82862Y-46542D01*
X83000Y-46405D01*
X83137Y-46542D01*
X83372Y-46639D01*
X83626Y-46640D01*
X83862Y-46542D01*
X84042Y-46362D01*
X84112Y-46192D01*
X84305Y-46000D01*
X84305Y-46388D01*
X84168Y-46526D01*
X84188Y-46663D01*
X84465Y-46731D01*
X84748Y-46689D01*
X84811Y-46663D01*
X84831Y-46526D01*
X84831Y-46804D01*
X71699Y-46804D01*
X71699Y-36266D01*
X88345Y-36266D01*
X88189Y-36421D01*
X88077Y-36693D01*
X88076Y-36987D01*
X88078Y-36991D01*
X87234Y-37835D01*
X86947Y-37835D01*
X86905Y-37793D01*
X86707Y-37710D01*
X86492Y-37710D01*
X86293Y-37792D01*
X86141Y-37944D01*
X86059Y-38142D01*
X86059Y-38357D01*
X86141Y-38556D01*
X86184Y-38599D01*
X86184Y-39201D01*
X85139Y-40246D01*
X85139Y-40202D01*
X85139Y-39652D01*
X85084Y-39518D01*
X84981Y-39415D01*
X84847Y-39360D01*
X84702Y-39360D01*
X84152Y-39360D01*
X84018Y-39415D01*
X83919Y-39514D01*
X83862Y-39457D01*
X83627Y-39360D01*
X83373Y-39359D01*
X83137Y-39457D01*
X82999Y-39594D01*
X82862Y-39457D01*
X82627Y-39360D01*
X82373Y-39359D01*
X82137Y-39457D01*
X81999Y-39594D01*
X81862Y-39457D01*
X81627Y-39360D01*
X81373Y-39359D01*
X81137Y-39457D01*
X80999Y-39594D01*
X80862Y-39457D01*
X80627Y-39360D01*
X80373Y-39359D01*
X80137Y-39457D01*
X79999Y-39594D01*
X79862Y-39457D01*
X79627Y-39360D01*
X79373Y-39359D01*
X79137Y-39457D01*
X78999Y-39594D01*
X78862Y-39457D01*
X78627Y-39360D01*
X78373Y-39359D01*
X78137Y-39457D01*
X77999Y-39594D01*
X77862Y-39457D01*
X77627Y-39360D01*
X77373Y-39359D01*
X77137Y-39457D01*
X76999Y-39594D01*
X76862Y-39457D01*
X76627Y-39360D01*
X76373Y-39359D01*
X76137Y-39457D01*
X75999Y-39594D01*
X75862Y-39457D01*
X75627Y-39360D01*
X75373Y-39359D01*
X75137Y-39457D01*
X74957Y-39637D01*
X74860Y-39872D01*
X74859Y-40126D01*
X74957Y-40362D01*
X75080Y-40485D01*
X73854Y-40485D01*
X73854Y-40485D01*
X73696Y-40516D01*
X73561Y-40606D01*
X73561Y-40606D01*
X72863Y-41304D01*
X72849Y-41225D01*
X72562Y-41155D01*
X72270Y-41201D01*
X72213Y-41225D01*
X72189Y-41363D01*
X72531Y-41705D01*
X72537Y-41700D01*
X72648Y-41811D01*
X72648Y-42015D01*
X72537Y-42126D01*
X72531Y-42121D01*
X72404Y-42248D01*
X72399Y-42248D01*
X72323Y-42279D01*
X72323Y-41913D01*
X71981Y-41571D01*
X71843Y-41594D01*
X71773Y-41882D01*
X71819Y-42174D01*
X71843Y-42231D01*
X71981Y-42255D01*
X72323Y-41913D01*
X72323Y-42279D01*
X72155Y-42349D01*
X71968Y-42536D01*
X71866Y-42780D01*
X71866Y-43045D01*
X71967Y-43289D01*
X72091Y-43413D01*
X71968Y-43536D01*
X71866Y-43780D01*
X71866Y-44045D01*
X71967Y-44289D01*
X72154Y-44476D01*
X72398Y-44578D01*
X72663Y-44578D01*
X72907Y-44477D01*
X73031Y-44353D01*
X73154Y-44476D01*
X73398Y-44578D01*
X73663Y-44578D01*
X73907Y-44477D01*
X74057Y-44328D01*
X74449Y-44328D01*
X74449Y-44328D01*
X74449Y-44328D01*
X74608Y-44296D01*
X74608Y-44296D01*
X74743Y-44206D01*
X76927Y-42022D01*
X76987Y-42022D01*
X77185Y-41940D01*
X77337Y-41789D01*
X77420Y-41590D01*
X77420Y-41554D01*
X84833Y-41554D01*
X84833Y-41554D01*
X84833Y-41554D01*
X84991Y-41523D01*
X84991Y-41523D01*
X85126Y-41433D01*
X86892Y-39667D01*
X86892Y-39667D01*
X86892Y-39667D01*
X86946Y-39586D01*
X86982Y-39532D01*
X86982Y-39532D01*
X87014Y-39373D01*
X87014Y-39373D01*
X87014Y-39373D01*
X87014Y-38665D01*
X87406Y-38665D01*
X87406Y-38665D01*
X87406Y-38665D01*
X87565Y-38634D01*
X87565Y-38634D01*
X87699Y-38544D01*
X88665Y-37578D01*
X88668Y-37579D01*
X88962Y-37580D01*
X89234Y-37467D01*
X89442Y-37260D01*
X89554Y-36988D01*
X89555Y-36694D01*
X89442Y-36422D01*
X89286Y-36266D01*
X90313Y-36266D01*
X90157Y-36421D01*
X90045Y-36693D01*
X90044Y-36987D01*
X90157Y-37259D01*
X90364Y-37467D01*
X90636Y-37579D01*
X90930Y-37580D01*
X91202Y-37467D01*
X91410Y-37260D01*
X91522Y-36988D01*
X91523Y-36694D01*
X91410Y-36422D01*
X91254Y-36266D01*
X92079Y-36266D01*
X92079Y-46804D01*
M02*
